<svg id="Layer_1" data-name="Layer 1" xmlns="http://www.w3.org/2000/svg" viewBox="0 0 507.3 235.8"><path d="M1467.1,378.8l-.2,3.2-2.6-.3c-1.4-.1-4-.4-5.7-.5l-3.1-.3v4.3c0,2.3.2,9.4.4,15.6s.5,17.7.8,25.6c.2,6.6.5,15.8.7,22.3H979l-.1-13.8c-.1-15.9-.4-34.9-.5-42.2l-.3-13.2H959.9l.1-3.9.1-4,71-36.1c39.1-19.9,71.2-36.3,71.4-36.5s.7-11.4,1.1-29.9l.1-5.9-2.7-.1a6.61,6.61,0,0,1-3.1-.6c-.5-.7.6-1.2,31-16.4,11.9-6,21.9-11.1,22.1-11.4.3-.5.5-.5,2,0s18.4,4.9,18.9,4.9a20.68,20.68,0,0,0,.3-3.5c.1-2.9,0-3.6-.5-3.7-.3-.1-1.9-.5-3.5-.9a11.24,11.24,0,0,1-3.1-1,2.3,2.3,0,0,0-1.4-.4c-1.2,0-1.2,0-1-1.8.1-1.6,0-1.7-.8-1.8-1.2-.2-1.6-1.1-.5-1.4.4-.1.7-.4.6-.7s1.3-.9,4.5-1.7c2.6-.7,9.8-3.1,16-5.5s11.5-4.3,11.7-4.3c.6,0,33.2,14.8,34,15.5a1.91,1.91,0,0,0,1,.5,1.8,1.8,0,0,1,.9.4c.4.2.3.8-.6,2.5l-1.1,2.2-3.4-.2c-1.9-.1-4-.3-4.9-.4l-1.5-.1.1,9,.1,9.1L1229,254c5.6,1.4,10.3,2.5,10.4,2.3a24.1,24.1,0,0,0,0-3.8l-.2-3.6-1.7-.7c-1.3-.7-2-.8-4.1-.6l-2.5.3v-1.4c0-1.1-.2-1.4-.8-1.4-1.3,0-.9-1,.5-1.4.9-.3,1.3-.6,1.3-1.1s2.1-1.6,12.9-5.7l12.9-5,1.5.7a13.06,13.06,0,0,0,2.1.8c.6,0,27.5,12.5,29.1,13.5.8.5.9.9.9,2.7v2.1h-10l.3,7.7c.2,4.3.4,7.8.4,7.9s2.1.6,4.4,1.2c2.9.8,12.8,4.5,31.7,12.1,15.1,6.1,28.8,11.6,30.6,12.1l3.2,1.1-.1,2.2a9.86,9.86,0,0,1-.3,2.4,40.21,40.21,0,0,1-5-1,21.85,21.85,0,0,0-6.3-1l-1.4.2.3,11.4c.2,6.2.3,11.4.4,11.5s21.5,9.3,80.1,34.3c15.5,6.6,32.3,13.8,37.4,15.9,6.2,2.6,9.4,4.2,9.8,4.8C1467.2,375.3,1467.3,376.4,1467.1,378.8Z" transform="translate(-959.9 -212.9)"/></svg>